<svg xmlns="http://www.w3.org/2000/svg" xmlns:xlink="http://www.w3.org/1999/xlink" width="238pt" height="260pt" viewBox="0.00 0.00 238.00 260.00">
<g id="graph0" class="graph" transform="scale(1 1) rotate(0) translate(4 256)">
<title>G</title>
<polygon fill="white" stroke="none" points="-4,4 -4,-256 234,-256 234,4 -4,4"/>
<!-- 1 -->
<g id="node1" class="node">
<title>1</title>
<ellipse fill="none" stroke="black" cx="27" cy="-234" rx="27" ry="18"/>
<text text-anchor="middle" x="27" y="-229.8" font-family="Times,serif" font-size="14.00">1</text>
</g>
<!-- 2 -->
<g id="node2" class="node">
<title>2</title>
<ellipse fill="none" stroke="black" cx="55" cy="-162" rx="27" ry="18"/>
<text text-anchor="middle" x="55" y="-157.8" font-family="Times,serif" font-size="14.00">2</text>
</g>
<!-- 1&#45;&gt;2 -->
<g id="edge1" class="edge">
<title>1-&gt;2</title>
<path fill="none" stroke="black" d="M33.64,-216.41C36.77,-208.57 40.6,-198.99 44.15,-190.13"/>
<polygon fill="black" stroke="black" points="47.39,-191.46 47.85,-180.88 40.89,-188.86 47.39,-191.46"/>
</g>
<!-- 3 -->
<g id="node3" class="node">
<title>3</title>
<ellipse fill="none" stroke="black" cx="38" cy="-18" rx="27" ry="18"/>
<text text-anchor="middle" x="38" y="-13.8" font-family="Times,serif" font-size="14.00">3</text>
</g>
<!-- 2&#45;&gt;3 -->
<g id="edge2" class="edge">
<title>2-&gt;3</title>
<path fill="none" stroke="black" d="M52.92,-143.59C50.05,-119.61 44.84,-76.14 41.4,-47.42"/>
<polygon fill="black" stroke="black" points="44.89,-47.13 40.23,-37.61 37.94,-47.96 44.89,-47.13"/>
</g>
<!-- 4 -->
<g id="node4" class="node">
<title>4</title>
<ellipse fill="none" stroke="black" cx="93" cy="-90" rx="27" ry="18"/>
<text text-anchor="middle" x="93" y="-85.8" font-family="Times,serif" font-size="14.00">4</text>
</g>
<!-- 2&#45;&gt;4 -->
<g id="edge4" class="edge">
<title>2-&gt;4</title>
<path fill="none" stroke="black" d="M63.81,-144.76C68.27,-136.55 73.8,-126.37 78.84,-117.09"/>
<polygon fill="black" stroke="black" points="81.82,-118.94 83.51,-108.48 75.67,-115.6 81.82,-118.94"/>
</g>
<!-- 3&#45;&gt;1 -->
<g id="edge3" class="edge">
<title>3-&gt;1</title>
<path fill="none" stroke="black" d="M33.85,-35.88C27.14,-65.14 15.04,-127.24 19,-180 19.6,-188.01 20.71,-196.65 21.91,-204.57"/>
<polygon fill="black" stroke="black" points="18.45,-205.09 23.51,-214.39 25.35,-203.96 18.45,-205.09"/>
</g>
<!-- 4&#45;&gt;3 -->
<g id="edge5" class="edge">
<title>4-&gt;3</title>
<path fill="none" stroke="black" d="M80.79,-73.46C73.89,-64.67 65.09,-53.48 57.27,-43.53"/>
<polygon fill="black" stroke="black" points="60.04,-41.38 51.11,-35.68 54.53,-45.71 60.04,-41.38"/>
</g>
<!-- 5 -->
<g id="node5" class="node">
<title>5</title>
<ellipse fill="none" stroke="black" cx="148" cy="-162" rx="27" ry="18"/>
<text text-anchor="middle" x="148" y="-157.8" font-family="Times,serif" font-size="14.00">5</text>
</g>
<!-- 5&#45;&gt;4 -->
<g id="edge6" class="edge">
<title>5-&gt;4</title>
<path fill="none" stroke="black" d="M135.79,-145.46C128.89,-136.67 120.09,-125.48 112.27,-115.53"/>
<polygon fill="black" stroke="black" points="115.04,-113.38 106.11,-107.68 109.53,-117.71 115.04,-113.38"/>
</g>
<!-- 6 -->
<g id="node6" class="node">
<title>6</title>
<ellipse fill="none" stroke="black" cx="203" cy="-90" rx="27" ry="18"/>
<text text-anchor="middle" x="203" y="-85.8" font-family="Times,serif" font-size="14.00">6</text>
</g>
<!-- 5&#45;&gt;6 -->
<g id="edge7" class="edge">
<title>5-&gt;6</title>
<path fill="none" stroke="black" d="M160.21,-145.46C167.11,-136.67 175.91,-125.48 183.73,-115.53"/>
<polygon fill="black" stroke="black" points="186.47,-117.71 189.89,-107.68 180.96,-113.38 186.47,-117.71"/>
</g>
<!-- 8 -->
<g id="node7" class="node">
<title>8</title>
<ellipse fill="none" stroke="black" cx="175" cy="-18" rx="27" ry="18"/>
<text text-anchor="middle" x="175" y="-13.8" font-family="Times,serif" font-size="14.00">8</text>
</g>
<!-- 6&#45;&gt;8 -->
<g id="edge8" class="edge">
<title>6-&gt;8</title>
<path fill="none" stroke="black" d="M196.36,-72.41C193.23,-64.57 189.4,-54.99 185.85,-46.13"/>
<polygon fill="black" stroke="black" points="189.11,-44.86 182.15,-36.88 182.61,-47.46 189.11,-44.86"/>
</g>
<!-- 8&#45;&gt;5 -->
<g id="edge9" class="edge">
<title>8-&gt;5</title>
<path fill="none" stroke="black" d="M171.73,-36.19C167.16,-60.21 158.82,-104.11 153.34,-132.91"/>
<polygon fill="black" stroke="black" points="149.97,-131.91 151.54,-142.38 156.85,-133.21 149.97,-131.91"/>
</g>
<!-- 7 -->
<g id="node8" class="node">
<title>7</title>
<ellipse fill="none" stroke="black" cx="99" cy="-234" rx="27" ry="18"/>
<text text-anchor="middle" x="99" y="-229.8" font-family="Times,serif" font-size="14.00">7</text>
</g>
</g>
</svg>