<svg xmlns="http://www.w3.org/2000/svg" xmlns:xlink="http://www.w3.org/1999/xlink" width="321pt" height="224pt" viewBox="0.00 0.00 321.43 224.21">
<g id="graph0" class="graph" transform="scale(1 1) rotate(0) translate(4 220.21)">
<title>G</title>
<polygon fill="white" stroke="none" points="-4,4 -4,-220.21 317.43,-220.21 317.43,4 -4,4"/>
<!-- h5 -->
<g id="node1" class="node">
<title>h5</title>
<ellipse fill="none" stroke="black" cx="27" cy="-98.21" rx="27" ry="18"/>
<text text-anchor="middle" x="27" y="-94.01" font-family="Times,serif" font-size="14.00">h5</text>
</g>
<!-- 4 -->
<g id="node2" class="node">
<title>4</title>
<ellipse fill="none" stroke="black" cx="126" cy="-98.21" rx="27" ry="18"/>
<text text-anchor="middle" x="126" y="-94.01" font-family="Times,serif" font-size="14.00">4</text>
</g>
<!-- h5&#45;&gt;4 -->
<g id="edge1" class="edge">
<title>h5-&gt;4</title>
<path fill="none" stroke="black" d="M54.31,-98.21C64.59,-98.21 76.48,-98.21 87.59,-98.21"/>
<polygon fill="black" stroke="black" points="87.26,-101.71 97.26,-98.21 87.26,-94.71 87.26,-101.71"/>
</g>
<!-- 3 -->
<g id="node3" class="node">
<title>3</title>
<ellipse fill="none" stroke="black" cx="206.21" cy="-178.43" rx="27" ry="18"/>
<text text-anchor="middle" x="206.21" y="-174.23" font-family="Times,serif" font-size="14.00">3</text>
</g>
<!-- 4&#45;&gt;3 -->
<g id="edge2" class="edge">
<title>4-&gt;3</title>
<path fill="none" stroke="black" d="M141.09,-113.3C152.89,-125.1 169.5,-141.72 182.99,-155.21"/>
<polygon fill="black" stroke="black" points="180.31,-157.47 189.85,-162.07 185.25,-152.52 180.31,-157.47"/>
</g>
<!-- 1 -->
<g id="node4" class="node">
<title>1</title>
<ellipse fill="none" stroke="black" cx="286.43" cy="-98.21" rx="27" ry="18"/>
<text text-anchor="middle" x="286.43" y="-94.01" font-family="Times,serif" font-size="14.00">1</text>
</g>
<!-- 3&#45;&gt;1 -->
<g id="edge3" class="edge">
<title>3-&gt;1</title>
<path fill="none" stroke="black" d="M221.3,-163.34C233.1,-151.54 249.72,-134.93 263.21,-121.43"/>
<polygon fill="black" stroke="black" points="265.47,-124.12 270.07,-114.58 260.52,-119.17 265.47,-124.12"/>
</g>
<!-- 2 -->
<g id="node5" class="node">
<title>2</title>
<ellipse fill="none" stroke="black" cx="206.21" cy="-18" rx="27" ry="18"/>
<text text-anchor="middle" x="206.21" y="-13.8" font-family="Times,serif" font-size="14.00">2</text>
</g>
<!-- 1&#45;&gt;2 -->
<g id="edge4" class="edge">
<title>1-&gt;2</title>
<path fill="none" stroke="black" d="M271.34,-83.13C259.54,-71.33 242.93,-54.71 229.43,-41.22"/>
<polygon fill="black" stroke="black" points="232.12,-38.96 222.58,-34.36 227.17,-43.91 232.12,-38.96"/>
</g>
<!-- 2&#45;&gt;4 -->
<g id="edge5" class="edge">
<title>2-&gt;4</title>
<path fill="none" stroke="black" d="M191.13,-33.09C179.33,-44.89 162.71,-61.5 149.22,-74.99"/>
<polygon fill="black" stroke="black" points="146.96,-72.31 142.36,-81.85 151.91,-77.25 146.96,-72.31"/>
</g>
<!-- 2&#45;&gt;3 -->
<g id="edge6" class="edge">
<title>2-&gt;3</title>
<path fill="none" stroke="black" d="M206.21,-36.4C206.21,-63.96 206.21,-116.23 206.21,-149.09"/>
<polygon fill="black" stroke="black" points="202.71,-148.73 206.21,-158.73 209.71,-148.73 202.71,-148.73"/>
</g>
<!-- 7 -->
<g id="node6" class="node">
<title>7</title>
<ellipse fill="none" stroke="black" cx="127.21" cy="-198.21" rx="27" ry="18"/>
<text text-anchor="middle" x="127.21" y="-194.01" font-family="Times,serif" font-size="14.00">7</text>
</g>
</g>
</svg>